<!DOCTYPE svg PUBLIC "-//W3C//DTD SVG 20010904//EN" "http://www.w3.org/TR/2001/REC-SVG-20010904/DTD/svg10.dtd">
<svg version="1.0" xmlns="http://www.w3.org/2000/svg" width="301px" height="274px" viewBox="0 0 3010 2740" preserveAspectRatio="xMidYMid meet">
<g id="layer101" fill="#000000" stroke="none">
 <path d="M969 2101 l-534 -379 5 -557 5 -557 520 -195 c344 -129 532 -194 557 -194 22 1 256 81 574 198 l537 197 -7 539 c-4 297 -10 545 -12 551 -5 10 -1083 767 -1102 774 -5 1 -249 -168 -543 -377z m524 -921 c-12 -11 -1026 -540 -1029 -538 -1 2 1 242 4 533 l5 530 511 362 511 362 3 -621 c1 -342 -1 -625 -5 -628z m575 868 l509 -357 7 -313 c3 -172 9 -409 12 -527 l7 -213 -284 146 c-156 80 -395 203 -531 273 l-248 128 0 613 c0 388 4 612 10 610 5 -1 238 -164 518 -360z m-51 -1149 c268 -138 498 -257 511 -263 21 -11 -30 -32 -485 -199 -279 -103 -513 -187 -520 -187 -15 0 -985 360 -995 369 -7 6 975 530 994 531 4 0 227 -113 495 -251z"/>
 </g>
<g id="layer102" fill="#ffffff" stroke="none">
 </g>

</svg>