<!DOCTYPE svg PUBLIC "-//W3C//DTD SVG 20010904//EN" "http://www.w3.org/TR/2001/REC-SVG-20010904/DTD/svg10.dtd">
<svg version="1.0" xmlns="http://www.w3.org/2000/svg" width="171px" height="171px" viewBox="0 0 1710 1710" preserveAspectRatio="xMidYMid meet">
<g id="layer101" fill="#00cccc" stroke="none">
 <path d="M655 1551 c-105 -60 -194 -113 -200 -118 -20 -18 -250 -148 -270 -153 -14 -4 -21 -15 -23 -37 -3 -30 1 -33 141 -114 l144 -83 -141 -82 -141 -81 -3 -214 -2 -215 127 -74 c71 -40 146 -86 168 -101 64 -44 386 -229 398 -229 12 0 366 202 412 235 17 12 88 54 158 94 169 97 169 96 -10 200 -73 42 -133 81 -133 86 0 6 60 44 133 86 l132 77 0 217 0 218 -60 32 c-33 18 -94 53 -135 78 -205 125 -484 287 -494 287 -6 0 -97 -49 -201 -109z m165 -148 l0 -138 -145 -82 c-80 -46 -148 -83 -152 -83 -5 0 -38 19 -75 43 -36 23 -88 55 -114 70 l-48 29 75 41 c41 22 157 89 259 148 102 59 188 107 193 108 4 1 7 -61 7 -136z m274 22 c107 -63 197 -115 200 -115 2 0 32 -16 66 -36 l61 -37 -38 -23 c-21 -13 -45 -27 -53 -30 -8 -4 -17 -10 -20 -14 -3 -3 -31 -21 -62 -39 l-57 -32 -151 87 -150 86 0 134 c0 74 2 134 4 134 2 0 92 -52 200 -115z m-211 -246 c7 -6 59 -37 116 -71 l104 -60 -104 -60 c-57 -33 -111 -67 -120 -74 -14 -12 -32 -5 -141 59 l-125 73 121 71 c67 39 125 72 129 72 4 1 13 -4 20 -10z m587 -134 l0 -114 -92 54 c-51 30 -94 58 -95 62 -2 7 162 110 180 112 4 1 7 -51 7 -114z m-843 -110 c52 -30 100 -55 107 -55 7 0 21 -7 32 -15 16 -12 16 -14 3 -15 -9 0 -67 -29 -129 -65 -65 -38 -119 -63 -129 -60 -9 2 -40 21 -69 40 -30 19 -56 35 -58 35 -2 0 -22 11 -44 25 -22 14 -48 25 -57 25 -10 1 11 15 47 34 36 18 92 49 125 69 33 20 64 37 69 37 5 0 52 -25 103 -55z m668 1 c49 -29 100 -57 113 -60 30 -10 28 -19 -9 -35 -17 -8 -54 -28 -81 -46 -27 -18 -68 -43 -91 -55 l-42 -22 -113 66 c-62 36 -121 66 -129 66 -14 0 -14 2 3 15 10 8 26 15 34 15 8 0 56 25 105 55 50 30 97 54 105 55 8 0 55 -24 105 -54z m-421 -135 c3 -4 55 -37 116 -71 l110 -64 -77 -44 c-43 -24 -98 -57 -122 -72 l-43 -28 -124 72 c-73 42 -118 74 -111 78 257 152 242 144 251 129z m-511 -89 l79 -45 -44 -27 c-23 -14 -69 -41 -100 -59 l-58 -32 0 116 0 116 23 -12 c12 -7 57 -32 100 -57z m312 -184 l144 -83 1 -137 c0 -76 -2 -138 -4 -138 -3 0 -104 58 -225 129 -121 71 -228 132 -238 135 -10 4 -28 14 -41 24 l-23 17 53 31 c29 17 80 48 112 68 33 20 64 36 68 36 5 0 74 -37 153 -82z m598 34 c44 -26 94 -56 113 -68 39 -24 37 -27 -36 -64 -25 -13 -128 -71 -230 -130 -102 -59 -195 -112 -207 -119 l-23 -12 0 138 0 138 143 82 c78 46 147 83 152 83 6 0 45 -22 88 -48z"/>
 </g>

</svg>